# xmcd CD database file
#
# Track frame offsets:
#	150
#	13447
#	23150
#	35120
#	49789
#	62965
#	76157
#	90905
#	101987
#	114652
#	136300
#	146912
#	155177
#	167047
#
# Disc length: 2350 seconds
#
# Revision: 1
# Processed by: cddbd v1.5.1PL0 Copyright (c) Steve Scherf et al.
# Submitted via: CDex 1.51
#
DISCID=c8092c0e
DTITLE=Texas Rangers Orchestra - O Melhor do Bang Bang
DYEAR=1900
DGENRE=Country
TTITLE0=The Good, The Bad and The Ugly (E. Morricone)
TTITLE1=Hang'em High (Frontiere)
TTITLE2=High Moon (Tiomkin)
TTITLE3=A Fistfull of Dollars (E. Morricone)
TTITLE4=The Alamo (E. Morricone)
TTITLE5=Rio Bravo (Tiomkin)
TTITLE6=Once Upon a Time in The West (E. Morricone)
TTITLE7=For a Few Dollars More (E. Morricone)
TTITLE8=The Magnificent Seven (E. Morricone)
TTITLE9=El Paso (M. Robbins)
TTITLE10=Bonanza (Livingston-Evans)
TTITLE11=Red River Valley (C. Kent)
TTITLE12=How The West Was Won (Newman-Darby)
TTITLE13=Oh Susannah (Stephen Foster)
EXTD=
EXTT0=
EXTT1=
EXTT2=
EXTT3=
EXTT4=
EXTT5=
EXTT6=
EXTT7=
EXTT8=
EXTT9=
EXTT10=
EXTT11=
EXTT12=
EXTT13=
PLAYORDER=
